<?xml version="1.0" encoding="utf-8"?>
<!-- Generator: Adobe Illustrator 16.0.0, SVG Export Plug-In . SVG Version: 6.00 Build 0)  -->
<!DOCTYPE svg PUBLIC "-//W3C//DTD SVG 1.1//EN" "http://www.w3.org/Graphics/SVG/1.1/DTD/svg11.dtd">
<svg version="1.1" id="Capa_1" xmlns="http://www.w3.org/2000/svg" xmlns:xlink="http://www.w3.org/1999/xlink" x="0px" y="0px"
	 width="160px" height="160px" viewBox="0 0 160 160" enable-background="new 0 0 160 160" xml:space="preserve">
<g>
	<line fill="#FFFFFF" x1="86.743" y1="55.025" x2="68.833" y2="88.087"/>
	
		<rect x="77.097" y="52.756" transform="matrix(0.8793 0.4764 -0.4764 0.8793 43.4785 -28.4144)" fill="#FFFFFF" width="1.383" height="37.601"/>
	<line fill="#FFFFFF" x1="57.841" y1="71.232" x2="86.007" y2="54.473"/>
	
		<rect x="71.233" y="46.465" transform="matrix(0.5108 0.8597 -0.8597 0.5108 89.2138 -31.0854)" fill="#FFFFFF" width="1.38" height="32.775"/>
	<path fill="#FFFFFF" d="M18.043,121.917c-1.388,1.388-3.232,2.083-5.057,2.083c-4.681,0-7.119-3.272-7.14-7.021
		c-0.039-3.708,2.381-7.178,7.14-7.178c1.824,0,3.669,0.694,5.057,2.082l-0.733,0.635c-1.189-1.189-2.756-1.765-4.323-1.765
		c-4.046,0-6.128,2.855-6.107,6.187c0.04,3.252,2.103,6.068,6.107,6.068c1.567,0,3.153-0.594,4.343-1.765L18.043,121.917z"/>
	<rect x="19.769" y="109.959" fill="#FFFFFF" width="0.972" height="13.881"/>
	<path fill="#FFFFFF" d="M30.952,123.841v-1.766c-0.752,1.349-2.121,1.903-3.489,1.924c-2.618,0-4.422-1.607-4.422-4.323v-5.651
		h0.972v5.631c0,2.221,1.367,3.411,3.49,3.392c2.021-0.021,3.43-1.548,3.43-3.57v-5.453h0.972v9.816H30.952z"/>
	<path fill="#FFFFFF" d="M35.019,109.959v6.227c0.794-1.586,2.38-2.3,4.064-2.3c2.737,0,4.919,1.824,4.919,5.057
		c0,3.251-2.161,5.057-4.898,5.057c-1.666,0-3.271-0.833-4.085-2.32v2.162h-0.951v-13.881H35.019z M35.038,118.923
		c0,2.439,1.705,4.125,4.006,4.125c2.201,0,4.006-1.389,4.006-4.105c0-2.756-1.805-4.125-4.006-4.125
		C36.784,114.818,35.038,116.483,35.038,118.923"/>
	<path fill="#FFFFFF" d="M45.43,118.942c0-2.935,2.222-5.057,4.978-5.057c2.757,0,5.215,1.685,4.838,5.513h-8.824
		c0.199,2.299,1.964,3.628,3.986,3.628c1.289,0,2.796-0.516,3.529-1.487l0.695,0.556c-0.952,1.249-2.658,1.883-4.225,1.883
		C47.651,123.979,45.43,122.056,45.43,118.942 M54.373,118.545c-0.02-2.418-1.606-3.768-3.966-3.768
		c-2.022,0-3.768,1.369-3.986,3.768H54.373z"/>
	<path fill="#FFFFFF" d="M64.091,115.829c-0.992-0.872-1.963-1.031-3.054-1.031c-1.527-0.021-2.994,0.555-2.954,1.805
		c0.04,1.309,1.745,1.565,2.975,1.784c1.744,0.298,4.145,0.596,4.044,2.876c-0.059,2.161-2.3,2.737-4.024,2.737
		c-1.727,0-3.432-0.654-4.283-1.964l0.714-0.635c0.813,1.171,2.28,1.667,3.589,1.667c1.189,0,2.994-0.317,3.054-1.864
		c0.04-1.408-1.587-1.686-3.192-1.944c-1.904-0.317-3.787-0.674-3.808-2.637c-0.02-1.923,1.903-2.756,3.887-2.736
		c1.428,0,2.677,0.397,3.649,1.309L64.091,115.829z"/>
	<path fill="#FFFFFF" d="M77.265,115.33v8.511h-0.583v-1.325c-0.499,0.912-1.483,1.422-2.504,1.422
		c-1.679,0-3.003-1.106-3.003-3.101c0-1.981,1.336-3.1,3.016-3.1c1.033,0,2.006,0.438,2.491,1.41v-3.817H77.265z M71.759,120.837
		c0,1.666,1.105,2.517,2.454,2.517c1.411,0,2.456-1.034,2.456-2.528c0-1.496-1.068-2.517-2.456-2.517
		C72.864,118.309,71.759,119.147,71.759,120.837"/>
	<path fill="#FFFFFF" d="M78.532,120.837c0-1.799,1.361-3.1,3.052-3.1c1.689,0,3.196,1.034,2.966,3.379h-5.41
		c0.121,1.411,1.203,2.226,2.444,2.226c0.788,0,1.714-0.316,2.163-0.912l0.426,0.34c-0.584,0.766-1.629,1.155-2.589,1.155
		C79.894,123.925,78.532,122.747,78.532,120.837 M84.015,120.594c-0.012-1.483-0.984-2.31-2.431-2.31
		c-1.241,0-2.311,0.839-2.444,2.31H84.015z"/>
	<path fill="#FFFFFF" d="M102.972,121.917c-1.389,1.388-3.232,2.083-5.057,2.083c-4.68,0-7.119-3.272-7.139-7.021
		c-0.039-3.708,2.379-7.178,7.139-7.178c1.824,0,3.668,0.694,5.057,2.082l-0.734,0.635c-1.188-1.189-2.756-1.765-4.322-1.765
		c-4.045,0-6.127,2.855-6.107,6.187c0.04,3.252,2.104,6.068,6.107,6.068c1.566,0,3.152-0.594,4.343-1.765L102.972,121.917z"/>
	<path fill="#FFFFFF" d="M105.789,110.852c0,1.031-1.567,1.031-1.567,0C104.222,109.82,105.789,109.82,105.789,110.852
		 M104.499,123.841h0.973v-9.835h-0.973V123.841z"/>
	<path fill="#FFFFFF" d="M107.295,118.942c0-2.935,2.222-5.057,4.978-5.057c2.758,0,5.217,1.685,4.84,5.513h-8.825
		c0.198,2.299,1.964,3.628,3.985,3.628c1.289,0,2.797-0.516,3.529-1.487l0.695,0.556c-0.953,1.249-2.656,1.883-4.225,1.883
		C109.517,123.979,107.295,122.056,107.295,118.942 M116.239,118.545c-0.02-2.418-1.605-3.768-3.967-3.768
		c-2.021,0-3.768,1.369-3.985,3.768H116.239z"/>
	<path fill="#FFFFFF" d="M120.187,114.044v1.745c0.752-1.348,2.121-1.903,3.49-1.923c2.617,0,4.42,1.605,4.42,4.323v5.652h-0.969
		v-5.632c0-2.221-1.369-3.41-3.492-3.391c-2.021,0.02-3.43,1.546-3.43,3.569v5.454h-0.973v-9.797H120.187z"/>
	<path fill="#FFFFFF" d="M138.272,122.472c-0.992,0.991-2.281,1.466-3.57,1.466c-2.756,0-5.037-1.903-5.037-4.996
		c0-3.094,2.201-4.998,5.037-4.998c1.289,0,2.578,0.496,3.57,1.467l-0.635,0.615c-0.793-0.793-1.885-1.17-2.936-1.17
		c-2.221,0-4.084,1.448-4.084,4.085c0,2.638,1.863,4.084,4.084,4.084c1.051,0,2.121-0.417,2.916-1.209L138.272,122.472z"/>
	<path fill="#FFFFFF" d="M141.147,110.852c0,1.031-1.566,1.031-1.566,0C139.581,109.82,141.147,109.82,141.147,110.852
		 M139.858,123.841h0.973v-9.835h-0.973V123.841z"/>
	<path fill="#FFFFFF" d="M152.63,114.044v9.797h-0.973v-2.083c-0.951,1.527-2.42,2.242-4.006,2.242
		c-2.736,0-4.977-2.063-4.977-5.057s2.24-5.017,4.977-5.017c1.586,0,3.193,0.734,4.006,2.261v-2.142H152.63z M143.646,118.942
		c0,2.458,1.785,4.105,4.006,4.105c5.453,0,5.453-8.19,0-8.19C145.431,114.857,143.646,116.483,143.646,118.942"/>
	<polygon fill="#FFFFFF" points="66.332,134.194 62.186,140.538 61.907,140.538 57.73,134.194 57.73,143.817 56.895,143.817 
		56.895,132.988 57.886,132.988 62.032,139.3 66.132,132.988 67.151,132.988 67.151,143.817 66.332,143.817 	"/>
	<path fill="#FFFFFF" d="M72.536,143.926c-2.15,0-3.883-1.501-3.883-3.93c0-2.29,1.732-3.946,3.883-3.946s4.068,1.316,3.775,4.302
		h-6.885c0.154,1.794,1.531,2.831,3.109,2.831c1.006,0,2.182-0.402,2.754-1.161l0.541,0.434
		C75.089,143.431,73.758,143.926,72.536,143.926 M69.427,139.686h6.203c-0.015-1.888-1.252-2.938-3.094-2.938
		C70.958,136.748,69.597,137.815,69.427,139.686 M72.753,134.89l1.424-1.902v-0.015H73.17l-1.16,1.856v0.062H72.753z"/>
	<polygon fill="#FFFFFF" points="80.503,139.3 82.778,136.175 83.69,136.175 83.69,136.206 80.952,139.856 83.907,143.786 
		83.907,143.817 83.01,143.817 80.503,140.398 77.997,143.817 77.101,143.817 77.101,143.786 80.055,139.856 77.317,136.206 
		77.317,136.175 78.229,136.175 	"/>
	<path fill="#FFFFFF" d="M86.026,133.684c0,0.805-1.223,0.805-1.223,0C84.804,132.88,86.026,132.88,86.026,133.684 M85.021,143.817
		h0.758v-7.674h-0.758V143.817z"/>
	<path fill="#FFFFFF" d="M93.901,142.75c-0.773,0.774-1.779,1.145-2.785,1.145c-2.15,0-3.93-1.485-3.93-3.899
		s1.717-3.899,3.93-3.899c1.006,0,2.012,0.388,2.785,1.145l-0.495,0.48c-0.618-0.62-1.47-0.913-2.29-0.913
		c-1.732,0-3.187,1.129-3.187,3.187c0,2.058,1.454,3.187,3.187,3.187c0.82,0,1.655-0.325,2.275-0.944L93.901,142.75z"/>
	<path fill="#FFFFFF" d="M94.938,140.011c0-2.429,1.731-3.976,3.882-3.976c2.151,0,3.884,1.547,3.884,3.976
		s-1.732,3.914-3.884,3.914C96.67,143.925,94.938,142.44,94.938,140.011 M101.961,140.011c0-1.98-1.407-3.264-3.141-3.264
		c-1.732,0-3.14,1.283-3.14,3.264c0,1.979,1.407,3.172,3.14,3.172C100.554,143.183,101.961,141.991,101.961,140.011"/>
	<line fill="#FFFFFF" x1="71.181" y1="22.335" x2="86.929" y2="35.32"/>
	
		<rect x="68.849" y="28.137" transform="matrix(0.7715 0.6362 -0.6362 0.7715 36.3995 -43.7066)" fill="#FFFFFF" width="20.411" height="1.382"/>
	<path fill="#FFFFFF" d="M105.882,55.673c0,2.243-1.818,4.063-4.063,4.063c-2.242,0-4.063-1.82-4.063-4.063
		c0-2.245,1.82-4.062,4.063-4.062C104.063,51.611,105.882,53.428,105.882,55.673"/>
	<path fill="#FFFFFF" d="M101.819,60.011c-2.393,0-4.338-1.946-4.338-4.338s1.945-4.338,4.338-4.338s4.338,1.946,4.338,4.338
		S104.212,60.011,101.819,60.011 M101.819,51.887c-2.087,0-3.786,1.699-3.786,3.786c0,2.087,1.699,3.786,3.786,3.786
		c2.088,0,3.785-1.698,3.785-3.786C105.604,53.586,103.907,51.887,101.819,51.887"/>
	<path fill="#FFFFFF" d="M89.999,53.921c0,1.632-1.324,2.955-2.955,2.955c-1.633,0-2.954-1.323-2.954-2.955
		c0-1.63,1.321-2.954,2.954-2.954C88.675,50.967,89.999,52.291,89.999,53.921"/>
	<path fill="#FFFFFF" d="M87.044,57.151c-1.781,0-3.23-1.449-3.23-3.23c0-1.781,1.449-3.23,3.23-3.23s3.23,1.449,3.23,3.23
		C90.274,55.702,88.825,57.151,87.044,57.151 M87.044,51.244c-1.477,0-2.678,1.201-2.678,2.677c0,1.477,1.201,2.678,2.678,2.678
		s2.678-1.201,2.678-2.678C89.722,52.445,88.521,51.244,87.044,51.244"/>
	<path fill="#FFFFFF" d="M89.779,35.322c0,1.631-1.323,2.955-2.954,2.955c-1.633,0-2.954-1.324-2.954-2.955
		c0-1.631,1.321-2.954,2.954-2.954C88.456,32.368,89.779,33.69,89.779,35.322"/>
	<path fill="#FFFFFF" d="M86.825,38.552c-1.781,0-3.23-1.449-3.23-3.229c0-1.781,1.449-3.23,3.23-3.23s3.23,1.449,3.23,3.23
		C90.056,37.104,88.606,38.552,86.825,38.552 M86.825,32.645c-1.477,0-2.678,1.201-2.678,2.678c0,1.476,1.201,2.677,2.678,2.677
		s2.678-1.201,2.678-2.677C89.503,33.846,88.302,32.645,86.825,32.645"/>
	<path fill="#FFFFFF" d="M105.143,33.273c0,2.342-1.9,4.244-4.243,4.244c-2.344,0-4.244-1.901-4.244-4.244
		c0-2.346,1.9-4.244,4.244-4.244C103.242,29.029,105.143,30.927,105.143,33.273"/>
	<path fill="#FFFFFF" d="M100.899,37.792c-2.492,0-4.52-2.027-4.52-4.519c0-2.493,2.027-4.52,4.52-4.52c2.49,0,4.52,2.027,4.52,4.52
		C105.419,35.765,103.39,37.792,100.899,37.792 M100.899,29.306c-2.188,0-3.968,1.78-3.968,3.967s1.78,3.967,3.968,3.967
		s3.967-1.779,3.967-3.967S103.087,29.306,100.899,29.306"/>
	
		<rect x="93.246" y="29.794" transform="matrix(0.0375 0.9993 -0.9993 0.0375 124.5661 -60.9777)" fill="#FFFFFF" width="1.381" height="8.759"/>
	
		<rect x="80.587" y="43.932" transform="matrix(0.0172 0.9999 -0.9999 0.0172 130.0511 -43.0674)" fill="#FFFFFF" width="12.693" height="1.381"/>
	
		<rect x="89.8" y="54.462" transform="matrix(0.9926 0.1217 -0.1217 0.9926 7.4113 -11.0387)" fill="#FFFFFF" width="8.546" height="1.382"/>
	<line fill="#FFFFFF" x1="57.472" y1="72.706" x2="86.843" y2="78.036"/>
	
		<rect x="57.232" y="74.819" transform="matrix(0.9839 0.1786 -0.1786 0.9839 14.6176 -11.673)" fill="#FFFFFF" width="29.851" height="1.104"/>
	<path fill="#FFFFFF" d="M56.183,67.907c2.244,0,4.063,1.818,4.063,4.063c0,2.243-1.818,4.061-4.063,4.061s-4.063-1.818-4.063-4.061
		C52.12,69.725,53.938,67.907,56.183,67.907"/>
	<path fill="#FFFFFF" d="M56.183,76.307c-2.393,0-4.338-1.946-4.338-4.337c0-2.393,1.945-4.339,4.338-4.339s4.338,1.946,4.338,4.339
		C60.521,74.361,58.575,76.307,56.183,76.307 M56.183,68.183c-2.087,0-3.786,1.698-3.786,3.787c0,2.086,1.699,3.785,3.786,3.785
		s3.785-1.698,3.785-3.785C59.968,69.881,58.27,68.183,56.183,68.183"/>
	<path fill="#FFFFFF" d="M68.339,85.591c1.631,0,2.954,1.322,2.954,2.954s-1.323,2.955-2.954,2.955
		c-1.633,0-2.955-1.323-2.955-2.955S66.706,85.591,68.339,85.591"/>
	<path fill="#FFFFFF" d="M68.339,91.775c-1.782,0-3.231-1.449-3.231-3.231c0-1.781,1.449-3.23,3.231-3.23
		c1.781,0,3.23,1.449,3.23,3.23C71.569,90.326,70.12,91.775,68.339,91.775 M68.339,85.867c-1.477,0-2.68,1.201-2.68,2.677
		c0,1.477,1.203,2.678,2.68,2.678s2.678-1.201,2.678-2.678C71.017,87.068,69.815,85.867,68.339,85.867"/>
	<path fill="#FFFFFF" d="M103.799,95.822c0,1.631-1.322,2.955-2.954,2.955c-1.631,0-2.955-1.324-2.955-2.955
		c0-1.632,1.324-2.954,2.955-2.954C102.477,92.869,103.799,94.19,103.799,95.822"/>
	<path fill="#FFFFFF" d="M100.845,99.053c-1.781,0-3.23-1.449-3.23-3.231c0-1.781,1.449-3.23,3.23-3.23s3.23,1.449,3.23,3.23
		C104.075,97.604,102.626,99.053,100.845,99.053 M100.845,93.145c-1.477,0-2.678,1.201-2.678,2.677c0,1.477,1.201,2.679,2.678,2.679
		s2.678-1.202,2.678-2.679C103.522,94.346,102.321,93.145,100.845,93.145"/>
	<path fill="#FFFFFF" d="M89.341,78.103c0,1.63-1.324,2.954-2.955,2.954c-1.632,0-2.954-1.323-2.954-2.954
		c0-1.633,1.322-2.955,2.954-2.955C88.017,75.147,89.341,76.469,89.341,78.103"/>
	<path fill="#FFFFFF" d="M86.386,81.332c-1.781,0-3.23-1.449-3.23-3.229c0-1.782,1.449-3.231,3.23-3.231s3.23,1.45,3.23,3.231
		C89.616,79.883,88.167,81.332,86.386,81.332 M86.386,75.424c-1.477,0-2.678,1.201-2.678,2.679c0,1.476,1.201,2.677,2.678,2.677
		s2.678-1.201,2.678-2.677C89.063,76.625,87.862,75.424,86.386,75.424"/>
	<path fill="#FFFFFF" d="M104.335,76.789c0,1.631-1.322,2.954-2.955,2.954c-1.632,0-2.953-1.323-2.953-2.954
		c0-1.633,1.321-2.954,2.953-2.954C103.013,73.835,104.335,75.156,104.335,76.789"/>
	<path fill="#FFFFFF" d="M101.38,80.019c-1.779,0-3.23-1.449-3.23-3.229s1.451-3.23,3.23-3.23c1.781,0,3.23,1.449,3.23,3.23
		S103.161,80.019,101.38,80.019 M101.38,74.112c-1.477,0-2.678,1.201-2.678,2.677s1.201,2.677,2.678,2.677s2.678-1.201,2.678-2.677
		S102.856,74.112,101.38,74.112"/>
	
		<rect x="93.101" y="72.211" transform="matrix(0.0346 0.9994 -0.9994 0.0346 167.4493 -19.4488)" fill="#FFFFFF" width="1.381" height="9.483"/>
	
		<rect x="84.803" y="80.863" transform="matrix(0.9875 0.1577 -0.1577 0.9875 14.9377 -12.3853)" fill="#FFFFFF" width="1.381" height="14.098"/>
	
		<rect x="91.009" y="90.497" transform="matrix(0.0735 0.9973 -0.9973 0.0735 181.3893 -1.8674)" fill="#FFFFFF" width="1.382" height="12.384"/>
	<line fill="#FFFFFF" x1="67.786" y1="26.292" x2="67.786" y2="85.966"/>
	<rect x="67.095" y="26.292" fill="#FFFFFF" width="1.381" height="59.674"/>
	<line fill="#FFFFFF" x1="70.239" y1="26.125" x2="75.521" y2="49.87"/>
	
		<rect x="60.719" y="37.306" transform="matrix(0.2171 0.9762 -0.9762 0.2171 94.1504 -41.3937)" fill="#FFFFFF" width="24.324" height="1.383"/>
	<line fill="#FFFFFF" x1="66.496" y1="23.345" x2="46.973" y2="45.63"/>
	
		<rect x="56.044" y="19.674" transform="matrix(0.7527 0.6584 -0.6584 0.7527 36.7354 -28.823)" fill="#FFFFFF" width="1.382" height="29.628"/>
	<path fill="#FFFFFF" d="M75.89,49.494c1.63,0,2.953,1.323,2.953,2.955s-1.323,2.954-2.953,2.954c-1.633,0-2.955-1.322-2.955-2.954
		S74.257,49.494,75.89,49.494"/>
	<path fill="#FFFFFF" d="M75.89,55.679c-1.782,0-3.231-1.45-3.231-3.23c0-1.782,1.449-3.23,3.231-3.23
		c1.779,0,3.229,1.449,3.229,3.23C79.119,54.229,77.669,55.679,75.89,55.679 M75.89,49.77c-1.478,0-2.68,1.201-2.68,2.678
		c0,1.477,1.202,2.677,2.68,2.677c1.477,0,2.678-1.201,2.678-2.677C78.567,50.971,77.366,49.77,75.89,49.77"/>
	<path fill="#FFFFFF" d="M42.922,42.861c3.97,0,7.19,3.218,7.19,7.19c0,3.971-3.221,7.189-7.19,7.189
		c-3.972,0-7.19-3.218-7.19-7.189C35.731,46.079,38.95,42.861,42.922,42.861"/>
	<path fill="#FFFFFF" d="M42.922,57.517c-4.118,0-7.467-3.35-7.467-7.465c0-4.118,3.349-7.467,7.467-7.467
		c4.116,0,7.467,3.349,7.467,7.467C50.389,54.167,47.038,57.517,42.922,57.517 M42.922,43.137c-3.813,0-6.915,3.102-6.915,6.915
		c0,3.811,3.102,6.913,6.915,6.913c3.812,0,6.914-3.102,6.914-6.913C49.836,46.239,46.733,43.137,42.922,43.137"/>
	<path fill="#FFFFFF" d="M68.118,62.073c2.141,0,3.875,1.734,3.875,3.875s-1.734,3.875-3.875,3.875s-3.875-1.734-3.875-3.875
		S65.978,62.073,68.118,62.073"/>
	<path fill="#FFFFFF" d="M68.118,70.098c-2.289,0-4.152-1.862-4.152-4.151c0-2.29,1.863-4.151,4.152-4.151s4.151,1.862,4.151,4.151
		C72.27,68.236,70.407,70.098,68.118,70.098 M68.118,62.349c-1.984,0-3.6,1.614-3.6,3.599c0,1.984,1.615,3.598,3.6,3.598
		s3.6-1.614,3.6-3.598C71.718,63.962,70.103,62.349,68.118,62.349"/>
	<path fill="#FFFFFF" d="M88.544,96.757c0,2.484-2.012,4.497-4.496,4.497c-2.483,0-4.496-2.013-4.496-4.497
		c0-2.482,2.013-4.497,4.496-4.497C86.532,92.26,88.544,94.275,88.544,96.757"/>
	<path fill="#FFFFFF" d="M84.048,101.53c-2.631,0-4.771-2.141-4.771-4.773s2.141-4.773,4.771-4.773c2.632,0,4.773,2.141,4.773,4.773
		S86.68,101.53,84.048,101.53 M84.048,92.536c-2.326,0-4.22,1.894-4.22,4.221c0,2.328,1.894,4.221,4.22,4.221
		c2.327,0,4.221-1.893,4.221-4.221C88.269,94.43,86.375,92.536,84.048,92.536"/>
	<path fill="#FFFFFF" d="M68.213,16.35c2.853,0,5.165,2.313,5.165,5.165c0,2.853-2.313,5.163-5.165,5.163s-5.163-2.311-5.163-5.163
		C63.05,18.663,65.36,16.35,68.213,16.35"/>
	<path fill="#FFFFFF" d="M68.213,26.954c-3,0-5.44-2.44-5.44-5.439s2.44-5.441,5.44-5.441s5.441,2.441,5.441,5.441
		S71.213,26.954,68.213,26.954 M68.213,16.626c-2.694,0-4.888,2.193-4.888,4.888s2.193,4.887,4.888,4.887
		c2.696,0,4.89-2.192,4.89-4.887S70.909,16.626,68.213,16.626"/>
	<path fill="#FFFFFF" d="M67.589,72.563c1.25,0,2.264,1.013,2.264,2.263s-1.014,2.264-2.264,2.264s-2.264-1.014-2.264-2.264
		S66.339,72.563,67.589,72.563"/>
	<path fill="#FFFFFF" d="M67.589,77.366c-1.4,0-2.54-1.139-2.54-2.54s1.14-2.54,2.54-2.54s2.54,1.139,2.54,2.54
		S68.989,77.366,67.589,77.366 M67.589,72.839c-1.096,0-1.987,0.891-1.987,1.987c0,1.096,0.892,1.987,1.987,1.987
		s1.987-0.891,1.987-1.987C69.576,73.73,68.685,72.839,67.589,72.839"/>
	<path fill="#FFFFFF" d="M76.344,73.77c1.288,0,2.333,1.044,2.333,2.333c0,1.289-1.045,2.332-2.333,2.332s-2.332-1.043-2.332-2.332
		C74.012,74.814,75.056,73.77,76.344,73.77"/>
	<path fill="#FFFFFF" d="M76.344,78.71c-1.438,0-2.608-1.17-2.608-2.608c0-1.439,1.17-2.609,2.608-2.609
		c1.439,0,2.609,1.17,2.609,2.609C78.953,77.54,77.783,78.71,76.344,78.71 M76.344,74.046c-1.134,0-2.056,0.921-2.056,2.056
		c0,1.133,0.922,2.056,2.056,2.056s2.057-0.923,2.057-2.056C78.4,74.967,77.478,74.046,76.344,74.046"/>
	<rect x="6.073" y="128.316" fill="#FFFFFF" width="148.08" height="0.553"/>
</g>
<g>
	<line fill="#262424" x1="266.743" y1="55.025" x2="248.833" y2="88.087"/>
	
		<rect x="257.097" y="52.756" transform="matrix(0.8794 0.4761 -0.4761 0.8794 65.1548 -114.0979)" fill="#262424" width="1.383" height="37.601"/>
	<line fill="#262424" x1="237.841" y1="71.232" x2="266.007" y2="54.473"/>
	
		<rect x="251.233" y="46.466" transform="matrix(0.5108 0.8597 -0.8597 0.5108 177.2611 -185.826)" fill="#262424" width="1.38" height="32.775"/>
	<path fill="#262424" d="M198.043,121.917c-1.388,1.388-3.232,2.083-5.057,2.083c-4.681,0-7.119-3.272-7.14-7.021
		c-0.039-3.708,2.381-7.179,7.14-7.179c1.824,0,3.669,0.694,5.057,2.082l-0.733,0.635c-1.189-1.189-2.756-1.765-4.323-1.765
		c-4.046,0-6.128,2.855-6.107,6.187c0.04,3.253,2.103,6.068,6.107,6.068c1.567,0,3.153-0.594,4.343-1.766L198.043,121.917z"/>
	<rect x="199.769" y="109.959" fill="#262424" width="0.972" height="13.882"/>
	<path fill="#262424" d="M210.952,123.841v-1.766c-0.752,1.348-2.121,1.902-3.489,1.924c-2.618,0-4.422-1.607-4.422-4.323v-5.651
		h0.972v5.631c0,2.221,1.367,3.411,3.49,3.393c2.021-0.021,3.43-1.549,3.43-3.57v-5.453h0.972v9.816H210.952z"/>
	<path fill="#262424" d="M215.019,109.959v6.227c0.794-1.587,2.38-2.3,4.064-2.3c2.737,0,4.919,1.824,4.919,5.057
		c0,3.251-2.161,5.057-4.898,5.057c-1.666,0-3.271-0.834-4.085-2.32v2.162h-0.951v-13.882H215.019z M215.038,118.923
		c0,2.438,1.705,4.125,4.006,4.125c2.201,0,4.006-1.39,4.006-4.105c0-2.757-1.805-4.125-4.006-4.125
		C216.784,114.818,215.038,116.483,215.038,118.923"/>
	<path fill="#262424" d="M225.43,118.943c0-2.936,2.222-5.057,4.978-5.057c2.757,0,5.215,1.685,4.838,5.513h-8.824
		c0.199,2.3,1.964,3.628,3.986,3.628c1.289,0,2.796-0.516,3.529-1.486l0.695,0.555c-0.952,1.249-2.658,1.883-4.225,1.883
		C227.651,123.978,225.43,122.056,225.43,118.943 M234.373,118.545c-0.02-2.419-1.606-3.768-3.966-3.768
		c-2.022,0-3.768,1.368-3.986,3.768H234.373z"/>
	<path fill="#262424" d="M244.091,115.83c-0.992-0.873-1.963-1.031-3.054-1.031c-1.527-0.021-2.994,0.555-2.954,1.805
		c0.04,1.309,1.745,1.565,2.975,1.783c1.744,0.299,4.145,0.596,4.044,2.877c-0.059,2.16-2.3,2.736-4.024,2.736
		c-1.727,0-3.432-0.654-4.283-1.965l0.714-0.635c0.813,1.172,2.28,1.667,3.589,1.667c1.189,0,2.994-0.317,3.054-1.864
		c0.04-1.408-1.587-1.686-3.192-1.943c-1.904-0.316-3.787-0.674-3.808-2.637c-0.02-1.924,1.903-2.756,3.887-2.736
		c1.428,0,2.677,0.396,3.649,1.309L244.091,115.83z"/>
	<path fill="#262424" d="M257.265,115.33v8.512h-0.583v-1.326c-0.499,0.912-1.483,1.423-2.504,1.423
		c-1.679,0-3.003-1.106-3.003-3.101c0-1.98,1.336-3.1,3.016-3.1c1.033,0,2.006,0.438,2.491,1.41v-3.818H257.265z M251.759,120.837
		c0,1.666,1.105,2.517,2.454,2.517c1.411,0,2.456-1.034,2.456-2.528c0-1.496-1.068-2.517-2.456-2.517
		C252.864,118.309,251.759,119.148,251.759,120.837"/>
	<path fill="#262424" d="M258.532,120.837c0-1.799,1.361-3.1,3.052-3.1c1.689,0,3.196,1.033,2.966,3.379h-5.41
		c0.121,1.41,1.203,2.226,2.444,2.226c0.788,0,1.714-0.316,2.163-0.912l0.426,0.34c-0.584,0.767-1.629,1.155-2.589,1.155
		C259.894,123.925,258.532,122.747,258.532,120.837 M264.015,120.594c-0.012-1.483-0.984-2.31-2.431-2.31
		c-1.241,0-2.311,0.839-2.444,2.31H264.015z"/>
	<path fill="#262424" d="M282.972,121.917c-1.389,1.388-3.232,2.083-5.057,2.083c-4.68,0-7.119-3.272-7.139-7.021
		c-0.039-3.708,2.379-7.179,7.139-7.179c1.824,0,3.668,0.694,5.057,2.082l-0.734,0.635c-1.188-1.189-2.756-1.765-4.322-1.765
		c-4.045,0-6.127,2.855-6.107,6.187c0.04,3.253,2.104,6.068,6.107,6.068c1.566,0,3.152-0.594,4.343-1.766L282.972,121.917z"/>
	<path fill="#262424" d="M285.789,110.851c0,1.031-1.567,1.031-1.567,0S285.789,109.82,285.789,110.851 M284.499,123.841h0.973
		v-9.836h-0.973V123.841z"/>
	<path fill="#262424" d="M287.295,118.943c0-2.936,2.222-5.057,4.978-5.057c2.758,0,5.217,1.685,4.84,5.513h-8.825
		c0.198,2.3,1.964,3.628,3.985,3.628c1.289,0,2.797-0.516,3.529-1.486l0.695,0.555c-0.953,1.249-2.656,1.883-4.225,1.883
		C289.517,123.978,287.295,122.056,287.295,118.943 M296.239,118.545c-0.02-2.419-1.605-3.768-3.967-3.768
		c-2.021,0-3.768,1.368-3.985,3.768H296.239z"/>
	<path fill="#262424" d="M300.187,114.044v1.744c0.752-1.348,2.121-1.902,3.49-1.922c2.617,0,4.42,1.605,4.42,4.322v5.652h-0.969
		v-5.633c0-2.221-1.369-3.41-3.492-3.391c-2.021,0.02-3.43,1.547-3.43,3.568v5.455h-0.973v-9.797H300.187z"/>
	<path fill="#262424" d="M318.272,122.472c-0.992,0.99-2.281,1.467-3.57,1.467c-2.756,0-5.037-1.904-5.037-4.996
		c0-3.094,2.201-4.998,5.037-4.998c1.289,0,2.578,0.496,3.57,1.467l-0.635,0.615c-0.793-0.793-1.885-1.17-2.936-1.17
		c-2.221,0-4.084,1.448-4.084,4.086c0,2.637,1.863,4.084,4.084,4.084c1.051,0,2.121-0.416,2.916-1.209L318.272,122.472z"/>
	<path fill="#262424" d="M321.147,110.851c0,1.031-1.566,1.031-1.566,0S321.147,109.82,321.147,110.851 M319.858,123.841h0.973
		v-9.836h-0.973V123.841z"/>
	<path fill="#262424" d="M332.63,114.044v9.797h-0.973v-2.084c-0.951,1.527-2.42,2.242-4.006,2.242
		c-2.736,0-4.977-2.063-4.977-5.057c0-2.995,2.24-5.018,4.977-5.018c1.586,0,3.193,0.734,4.006,2.261v-2.142H332.63z
		 M323.646,118.943c0,2.457,1.785,4.105,4.006,4.105c5.453,0,5.453-8.191,0-8.191C325.431,114.857,323.646,116.483,323.646,118.943"
		/>
	<polygon fill="#262424" points="246.332,134.195 242.186,140.538 241.907,140.538 237.73,134.195 237.73,143.818 236.895,143.818 
		236.895,132.988 237.886,132.988 242.032,139.3 246.132,132.988 247.151,132.988 247.151,143.818 246.332,143.818 	"/>
	<path fill="#262424" d="M252.536,143.926c-2.15,0-3.883-1.501-3.883-3.931c0-2.289,1.732-3.945,3.883-3.945
		s4.068,1.316,3.775,4.302h-6.885c0.154,1.794,1.531,2.831,3.109,2.831c1.006,0,2.182-0.402,2.754-1.16l0.541,0.434
		C255.089,143.431,253.758,143.926,252.536,143.926 M249.427,139.686h6.203c-0.015-1.888-1.252-2.938-3.094-2.938
		C250.958,136.748,249.597,137.815,249.427,139.686 M252.753,134.89l1.424-1.902v-0.016h-1.007l-1.16,1.856v0.062H252.753z"/>
	<polygon fill="#262424" points="260.503,139.3 262.778,136.175 263.69,136.175 263.69,136.206 260.952,139.857 263.907,143.786 
		263.907,143.818 263.01,143.818 260.503,140.398 257.997,143.818 257.101,143.818 257.101,143.786 260.055,139.857 
		257.317,136.206 257.317,136.175 258.229,136.175 	"/>
	<path fill="#262424" d="M266.026,133.683c0,0.806-1.223,0.806-1.223,0C264.804,132.88,266.026,132.88,266.026,133.683
		 M265.021,143.818h0.758v-7.674h-0.758V143.818z"/>
	<path fill="#262424" d="M273.901,142.75c-0.773,0.774-1.779,1.146-2.785,1.146c-2.15,0-3.93-1.485-3.93-3.899
		c0-2.413,1.717-3.898,3.93-3.898c1.006,0,2.012,0.387,2.785,1.145l-0.495,0.48c-0.618-0.619-1.47-0.913-2.29-0.913
		c-1.732,0-3.187,1.129-3.187,3.187c0,2.059,1.454,3.188,3.187,3.188c0.82,0,1.655-0.325,2.275-0.943L273.901,142.75z"/>
	<path fill="#262424" d="M274.938,140.011c0-2.429,1.731-3.976,3.882-3.976c2.151,0,3.884,1.547,3.884,3.976
		s-1.732,3.914-3.884,3.914C276.67,143.925,274.938,142.44,274.938,140.011 M281.961,140.011c0-1.98-1.407-3.264-3.141-3.264
		c-1.732,0-3.14,1.283-3.14,3.264c0,1.979,1.407,3.172,3.14,3.172C280.554,143.183,281.961,141.991,281.961,140.011"/>
	<line fill="#262424" x1="251.181" y1="22.335" x2="266.929" y2="35.32"/>
	
		<rect x="248.849" y="28.137" transform="matrix(0.7716 0.6362 -0.6362 0.7716 77.5174 -158.214)" fill="#262424" width="20.411" height="1.382"/>
	<path fill="#262424" d="M285.882,55.673c0,2.242-1.818,4.063-4.063,4.063c-2.242,0-4.063-1.82-4.063-4.063
		c0-2.245,1.82-4.063,4.063-4.063C284.063,51.611,285.882,53.428,285.882,55.673"/>
	<path fill="#262424" d="M281.819,60.011c-2.393,0-4.338-1.946-4.338-4.338c0-2.393,1.945-4.338,4.338-4.338
		s4.338,1.945,4.338,4.338C286.157,58.065,284.212,60.011,281.819,60.011 M281.819,51.887c-2.087,0-3.786,1.698-3.786,3.786
		c0,2.087,1.699,3.785,3.786,3.785c2.088,0,3.785-1.698,3.785-3.785C285.604,53.585,283.907,51.887,281.819,51.887"/>
	<path fill="#262424" d="M269.999,53.921c0,1.632-1.324,2.955-2.955,2.955c-1.633,0-2.954-1.323-2.954-2.955
		c0-1.631,1.321-2.954,2.954-2.954C268.675,50.967,269.999,52.291,269.999,53.921"/>
	<path fill="#262424" d="M267.044,57.152c-1.781,0-3.23-1.449-3.23-3.23s1.449-3.23,3.23-3.23s3.23,1.449,3.23,3.23
		S268.825,57.152,267.044,57.152 M267.044,51.244c-1.477,0-2.678,1.201-2.678,2.678s1.201,2.678,2.678,2.678
		s2.678-1.201,2.678-2.678S268.521,51.244,267.044,51.244"/>
	<path fill="#262424" d="M269.779,35.322c0,1.631-1.323,2.955-2.954,2.955c-1.633,0-2.954-1.324-2.954-2.955
		s1.321-2.954,2.954-2.954C268.456,32.368,269.779,33.691,269.779,35.322"/>
	<path fill="#262424" d="M266.825,38.552c-1.781,0-3.23-1.449-3.23-3.229c0-1.781,1.449-3.23,3.23-3.23s3.23,1.449,3.23,3.23
		C270.056,37.103,268.606,38.552,266.825,38.552 M266.825,32.644c-1.477,0-2.678,1.201-2.678,2.679c0,1.476,1.201,2.677,2.678,2.677
		s2.678-1.201,2.678-2.677C269.503,33.845,268.302,32.644,266.825,32.644"/>
	<path fill="#262424" d="M285.143,33.273c0,2.342-1.9,4.244-4.243,4.244c-2.344,0-4.244-1.902-4.244-4.244
		c0-2.346,1.9-4.244,4.244-4.244C283.242,29.029,285.143,30.927,285.143,33.273"/>
	<path fill="#262424" d="M280.899,37.792c-2.492,0-4.52-2.027-4.52-4.52s2.027-4.52,4.52-4.52c2.49,0,4.52,2.027,4.52,4.52
		S283.39,37.792,280.899,37.792 M280.899,29.306c-2.188,0-3.968,1.779-3.968,3.967s1.78,3.967,3.968,3.967s3.967-1.779,3.967-3.967
		S283.087,29.306,280.899,29.306"/>
	
		<rect x="273.246" y="29.794" transform="matrix(0.0375 0.9993 -0.9993 0.0375 297.818 -240.8516)" fill="#262424" width="1.381" height="8.759"/>
	
		<rect x="260.587" y="43.932" transform="matrix(0.0172 0.9999 -0.9999 0.0172 306.9493 -223.0404)" fill="#262424" width="12.693" height="1.381"/>
	
		<rect x="269.8" y="54.462" transform="matrix(0.9926 0.1218 -0.1218 0.9926 8.7593 -32.9748)" fill="#262424" width="8.546" height="1.382"/>
	<line fill="#262424" x1="237.472" y1="72.706" x2="266.843" y2="78.036"/>
	
		<rect x="237.232" y="74.819" transform="matrix(0.9839 0.1786 -0.1786 0.9839 17.5103 -43.8132)" fill="#262424" width="29.851" height="1.105"/>
	<path fill="#262424" d="M236.183,67.907c2.244,0,4.063,1.817,4.063,4.063c0,2.243-1.818,4.062-4.063,4.062
		s-4.063-1.818-4.063-4.062C232.12,69.724,233.938,67.907,236.183,67.907"/>
	<path fill="#262424" d="M236.183,76.306c-2.393,0-4.338-1.945-4.338-4.337c0-2.393,1.945-4.339,4.338-4.339
		s4.338,1.946,4.338,4.339C240.521,74.361,238.575,76.306,236.183,76.306 M236.183,68.183c-2.087,0-3.786,1.697-3.786,3.786
		c0,2.087,1.699,3.784,3.786,3.784s3.785-1.697,3.785-3.784C239.968,69.88,238.27,68.183,236.183,68.183"/>
	<path fill="#262424" d="M248.339,85.591c1.631,0,2.954,1.321,2.954,2.953s-1.323,2.955-2.954,2.955
		c-1.633,0-2.955-1.323-2.955-2.955S246.706,85.591,248.339,85.591"/>
	<path fill="#262424" d="M248.339,91.775c-1.782,0-3.231-1.449-3.231-3.23s1.449-3.23,3.231-3.23c1.781,0,3.23,1.449,3.23,3.23
		S250.12,91.775,248.339,91.775 M248.339,85.867c-1.477,0-2.68,1.201-2.68,2.678s1.203,2.678,2.68,2.678s2.678-1.201,2.678-2.678
		S249.815,85.867,248.339,85.867"/>
	<path fill="#262424" d="M283.799,95.822c0,1.632-1.322,2.955-2.954,2.955c-1.631,0-2.955-1.323-2.955-2.955
		c0-1.631,1.324-2.953,2.955-2.953C282.477,92.869,283.799,94.191,283.799,95.822"/>
	<path fill="#262424" d="M280.845,99.053c-1.781,0-3.23-1.449-3.23-3.231c0-1.78,1.449-3.229,3.23-3.229s3.23,1.449,3.23,3.229
		C284.075,97.604,282.626,99.053,280.845,99.053 M280.845,93.145c-1.477,0-2.678,1.2-2.678,2.677c0,1.478,1.201,2.68,2.678,2.68
		s2.678-1.202,2.678-2.68C283.522,94.345,282.321,93.145,280.845,93.145"/>
	<path fill="#262424" d="M269.341,78.103c0,1.63-1.324,2.953-2.955,2.953c-1.632,0-2.954-1.323-2.954-2.953
		c0-1.634,1.322-2.955,2.954-2.955C268.017,75.148,269.341,76.469,269.341,78.103"/>
	<path fill="#262424" d="M266.386,81.332c-1.781,0-3.23-1.448-3.23-3.229c0-1.782,1.449-3.232,3.23-3.232s3.23,1.45,3.23,3.232
		C269.616,79.883,268.167,81.332,266.386,81.332 M266.386,75.423c-1.477,0-2.678,1.201-2.678,2.68c0,1.475,1.201,2.676,2.678,2.676
		s2.678-1.201,2.678-2.676C269.063,76.625,267.862,75.423,266.386,75.423"/>
	<path fill="#262424" d="M284.335,76.789c0,1.631-1.322,2.955-2.955,2.955c-1.632,0-2.953-1.324-2.953-2.955
		c0-1.633,1.321-2.953,2.953-2.953C283.013,73.835,284.335,75.156,284.335,76.789"/>
	<path fill="#262424" d="M281.38,80.019c-1.779,0-3.23-1.449-3.23-3.23c0-1.78,1.451-3.229,3.23-3.229
		c1.781,0,3.23,1.449,3.23,3.229C284.61,78.57,283.161,80.019,281.38,80.019 M281.38,74.112c-1.477,0-2.678,1.2-2.678,2.677
		s1.201,2.678,2.678,2.678s2.678-1.201,2.678-2.678S282.856,74.112,281.38,74.112"/>
	
		<rect x="273.101" y="72.212" transform="matrix(0.0346 0.9994 -0.9994 0.0346 341.2168 -199.3397)" fill="#262424" width="1.382" height="9.483"/>
	
		<rect x="264.803" y="80.862" transform="matrix(0.9876 0.1571 -0.1571 0.9876 17.1013 -40.6054)" fill="#262424" width="1.38" height="14.098"/>
	
		<rect x="271.008" y="90.497" transform="matrix(0.0735 0.9973 -0.9973 0.0735 348.1696 -181.3791)" fill="#262424" width="1.383" height="12.384"/>
	<line fill="#262424" x1="247.786" y1="26.292" x2="247.786" y2="85.966"/>
	<rect x="247.095" y="26.292" fill="#262424" width="1.381" height="59.674"/>
	<line fill="#262424" x1="250.239" y1="26.125" x2="255.521" y2="49.871"/>
	
		<rect x="240.718" y="37.306" transform="matrix(0.2171 0.9762 -0.9762 0.2171 235.0768 -217.1011)" fill="#262424" width="24.324" height="1.382"/>
	<line fill="#262424" x1="246.496" y1="23.345" x2="226.973" y2="45.63"/>
	
		<rect x="236.044" y="19.674" transform="matrix(0.7529 0.6582 -0.6582 0.7529 81.1995 -147.2855)" fill="#262424" width="1.381" height="29.628"/>
	<path fill="#262424" d="M255.89,49.494c1.63,0,2.953,1.322,2.953,2.955c0,1.631-1.323,2.953-2.953,2.953
		c-1.633,0-2.955-1.322-2.955-2.953C252.935,50.816,254.257,49.494,255.89,49.494"/>
	<path fill="#262424" d="M255.89,55.679c-1.782,0-3.231-1.45-3.231-3.23c0-1.782,1.449-3.23,3.231-3.23
		c1.779,0,3.229,1.448,3.229,3.23C259.119,54.229,257.669,55.679,255.89,55.679 M255.89,49.77c-1.478,0-2.68,1.201-2.68,2.679
		c0,1.477,1.202,2.677,2.68,2.677c1.477,0,2.678-1.2,2.678-2.677C258.567,50.971,257.366,49.77,255.89,49.77"/>
	<path fill="#262424" d="M222.922,42.861c3.97,0,7.19,3.219,7.19,7.191c0,3.971-3.221,7.189-7.19,7.189
		c-3.972,0-7.19-3.219-7.19-7.189C215.731,46.08,218.95,42.861,222.922,42.861"/>
	<path fill="#262424" d="M222.922,57.517c-4.118,0-7.467-3.35-7.467-7.465c0-4.118,3.349-7.467,7.467-7.467
		c4.116,0,7.467,3.349,7.467,7.467C230.389,54.167,227.038,57.517,222.922,57.517 M222.922,43.137c-3.813,0-6.915,3.102-6.915,6.915
		c0,3.811,3.102,6.912,6.915,6.912c3.812,0,6.914-3.102,6.914-6.912C229.836,46.239,226.733,43.137,222.922,43.137"/>
	<path fill="#262424" d="M248.118,62.073c2.141,0,3.875,1.733,3.875,3.874s-1.734,3.875-3.875,3.875s-3.875-1.734-3.875-3.875
		S245.978,62.073,248.118,62.073"/>
	<path fill="#262424" d="M248.118,70.098c-2.289,0-4.152-1.862-4.152-4.151s1.863-4.15,4.152-4.15s4.151,1.861,4.151,4.15
		S250.407,70.098,248.118,70.098 M248.118,62.349c-1.984,0-3.6,1.613-3.6,3.598s1.615,3.599,3.6,3.599s3.6-1.614,3.6-3.599
		S250.103,62.349,248.118,62.349"/>
	<path fill="#262424" d="M268.544,96.757c0,2.484-2.012,4.496-4.496,4.496c-2.483,0-4.496-2.012-4.496-4.496
		c0-2.482,2.013-4.498,4.496-4.498C266.532,92.259,268.544,94.275,268.544,96.757"/>
	<path fill="#262424" d="M264.048,101.53c-2.631,0-4.771-2.141-4.771-4.772c0-2.633,2.141-4.773,4.771-4.773
		c2.632,0,4.773,2.141,4.773,4.773C268.821,99.389,266.68,101.53,264.048,101.53 M264.048,92.537c-2.326,0-4.22,1.894-4.22,4.221
		s1.894,4.221,4.22,4.221c2.327,0,4.221-1.894,4.221-4.221S266.375,92.537,264.048,92.537"/>
	<path fill="#262424" d="M248.213,16.35c2.853,0,5.165,2.313,5.165,5.165c0,2.852-2.313,5.162-5.165,5.162s-5.163-2.311-5.163-5.162
		C243.05,18.663,245.36,16.35,248.213,16.35"/>
	<path fill="#262424" d="M248.213,26.955c-3,0-5.44-2.44-5.44-5.439c0-3,2.44-5.441,5.44-5.441s5.441,2.441,5.441,5.441
		C253.654,24.514,251.213,26.955,248.213,26.955 M248.213,16.626c-2.694,0-4.888,2.193-4.888,4.889s2.193,4.887,4.888,4.887
		c2.696,0,4.89-2.191,4.89-4.887S250.909,16.626,248.213,16.626"/>
	<path fill="#262424" d="M247.589,72.563c1.25,0,2.264,1.013,2.264,2.263s-1.014,2.264-2.264,2.264s-2.264-1.014-2.264-2.264
		S246.339,72.563,247.589,72.563"/>
	<path fill="#262424" d="M247.589,77.366c-1.4,0-2.54-1.14-2.54-2.54s1.14-2.539,2.54-2.539s2.54,1.139,2.54,2.539
		S248.989,77.366,247.589,77.366 M247.589,72.839c-1.096,0-1.987,0.891-1.987,1.986c0,1.097,0.892,1.988,1.987,1.988
		s1.987-0.892,1.987-1.988C249.576,73.73,248.685,72.839,247.589,72.839"/>
	<path fill="#262424" d="M256.344,73.769c1.288,0,2.333,1.045,2.333,2.333s-1.045,2.332-2.333,2.332s-2.332-1.044-2.332-2.332
		S255.056,73.769,256.344,73.769"/>
	<path fill="#262424" d="M256.344,78.71c-1.438,0-2.608-1.17-2.608-2.608s1.17-2.608,2.608-2.608c1.439,0,2.609,1.17,2.609,2.608
		S257.783,78.71,256.344,78.71 M256.344,74.046c-1.134,0-2.056,0.921-2.056,2.056c0,1.134,0.922,2.056,2.056,2.056
		s2.057-0.922,2.057-2.056C258.4,74.967,257.478,74.046,256.344,74.046"/>
	<rect x="186.073" y="128.316" fill="#262424" width="148.08" height="0.553"/>
</g>
<g>
	<line fill="#5AA192" x1="86.709" y1="235.151" x2="68.89" y2="268.046"/>
	
		<rect x="77.111" y="232.893" transform="matrix(0.8793 0.4762 -0.4762 0.8793 129.203 -6.6885)" fill="#5AA192" width="1.376" height="37.411"/>
	<line fill="#5AA192" x1="57.953" y1="251.276" x2="85.977" y2="234.603"/>
	
		<rect x="71.278" y="226.634" transform="matrix(0.5109 0.8596 -0.8596 0.5109 244.03 56.9515)" fill="#5AA192" width="1.372" height="32.61"/>
	<path d="M18.356,301.704c-1.381,1.381-3.216,2.072-5.031,2.072c-4.655,0-7.082-3.256-7.103-6.985
		c-0.039-3.688,2.368-7.142,7.103-7.142c1.815,0,3.65,0.69,5.031,2.071l-0.73,0.632c-1.184-1.184-2.741-1.756-4.301-1.756
		c-4.024,0-6.096,2.84-6.076,6.156c0.041,3.234,2.091,6.036,6.076,6.036c1.56,0,3.137-0.591,4.322-1.757L18.356,301.704z"/>
	<rect x="20.073" y="289.808" width="0.968" height="13.811"/>
	<path d="M31.201,303.618v-1.756c-0.749,1.342-2.11,1.894-3.473,1.914c-2.604,0-4.397-1.599-4.397-4.302v-5.623h0.966v5.604
		c0,2.209,1.36,3.394,3.472,3.374c2.013-0.02,3.413-1.539,3.413-3.551v-5.427h0.967v9.767H31.201z"/>
	<path d="M35.247,289.808v6.195c0.789-1.579,2.367-2.289,4.044-2.289c2.722,0,4.893,1.814,4.893,5.031
		c0,3.235-2.15,5.031-4.873,5.031c-1.657,0-3.255-0.829-4.063-2.309v2.15H34.3v-13.811H35.247z M35.267,298.726
		c0,2.426,1.695,4.104,3.985,4.104c2.19,0,3.985-1.382,3.985-4.084c0-2.742-1.795-4.104-3.985-4.104
		C37.003,294.641,35.267,296.298,35.267,298.726"/>
	<path d="M45.606,298.745c0-2.92,2.209-5.031,4.95-5.031c2.743,0,5.19,1.677,4.815,5.485h-8.78c0.197,2.287,1.953,3.61,3.965,3.61
		c1.283,0,2.783-0.514,3.513-1.48l0.691,0.553c-0.947,1.242-2.645,1.874-4.204,1.874C47.815,303.756,45.606,301.843,45.606,298.745
		 M54.504,298.35c-0.021-2.406-1.6-3.748-3.947-3.748c-2.012,0-3.749,1.36-3.965,3.748H54.504z"/>
	<path d="M64.173,295.647c-0.989-0.868-1.955-1.025-3.039-1.025c-1.521-0.021-2.979,0.551-2.939,1.795
		c0.039,1.302,1.737,1.559,2.959,1.775c1.736,0.295,4.124,0.592,4.024,2.861c-0.06,2.15-2.288,2.723-4.005,2.723
		s-3.413-0.651-4.262-1.953l0.71-0.633c0.81,1.164,2.269,1.658,3.569,1.658c1.187,0,2.982-0.316,3.04-1.854
		c0.04-1.401-1.577-1.677-3.175-1.935c-1.895-0.314-3.769-0.67-3.79-2.623c-0.02-1.914,1.896-2.742,3.868-2.723
		c1.42,0,2.663,0.395,3.63,1.303L64.173,295.647z"/>
	<path d="M77.278,295.151v8.467h-0.579V302.3c-0.497,0.907-1.476,1.414-2.492,1.414c-1.669,0-2.986-1.1-2.986-3.084
		c0-1.971,1.329-3.084,2.999-3.084c1.028,0,1.995,0.436,2.479,1.402v-3.797H77.278z M71.799,300.63c0,1.658,1.102,2.504,2.443,2.504
		c1.405,0,2.443-1.028,2.443-2.516c0-1.488-1.063-2.504-2.443-2.504C72.9,298.114,71.799,298.948,71.799,300.63"/>
	<path d="M78.54,300.63c0-1.79,1.354-3.084,3.036-3.084s3.181,1.027,2.95,3.362h-5.382c0.12,1.403,1.196,2.214,2.432,2.214
		c0.784,0,1.705-0.314,2.152-0.907l0.424,0.339c-0.581,0.762-1.621,1.148-2.576,1.148C79.895,303.702,78.54,302.53,78.54,300.63
		 M83.995,300.389c-0.012-1.477-0.98-2.299-2.419-2.299c-1.235,0-2.299,0.835-2.432,2.299H83.995z"/>
	<path d="M102.856,301.704c-1.382,1.381-3.217,2.072-5.031,2.072c-4.657,0-7.083-3.256-7.104-6.985
		c-0.038-3.688,2.368-7.142,7.104-7.142c1.814,0,3.649,0.69,5.031,2.071l-0.73,0.632c-1.184-1.184-2.743-1.756-4.301-1.756
		c-4.025,0-6.097,2.84-6.077,6.156c0.04,3.234,2.091,6.036,6.077,6.036c1.558,0,3.138-0.591,4.32-1.757L102.856,301.704z"/>
	<path d="M105.658,290.696c0,1.024-1.559,1.024-1.559,0C104.1,289.669,105.658,289.669,105.658,290.696 M104.375,303.618h0.968
		v-9.785h-0.968V303.618z"/>
	<path d="M107.157,298.745c0-2.92,2.211-5.031,4.953-5.031s5.188,1.677,4.813,5.485h-8.78c0.198,2.287,1.955,3.61,3.967,3.61
		c1.282,0,2.781-0.514,3.512-1.48l0.689,0.553c-0.946,1.242-2.643,1.874-4.201,1.874
		C109.368,303.756,107.157,301.843,107.157,298.745 M116.056,298.35c-0.02-2.406-1.597-3.748-3.945-3.748
		c-2.012,0-3.748,1.36-3.967,3.748H116.056z"/>
	<path d="M119.982,293.871v1.736c0.75-1.341,2.111-1.894,3.473-1.913c2.604,0,4.399,1.598,4.399,4.301v5.623h-0.966v-5.604
		c0-2.209-1.361-3.393-3.474-3.374c-2.012,0.021-3.412,1.539-3.412,3.552v5.426h-0.968v-9.747H119.982z"/>
	<path d="M137.977,302.257c-0.986,0.986-2.269,1.459-3.551,1.459c-2.742,0-5.011-1.893-5.011-4.971s2.189-4.973,5.011-4.973
		c1.282,0,2.564,0.494,3.551,1.461l-0.631,0.611c-0.789-0.789-1.875-1.164-2.92-1.164c-2.209,0-4.063,1.439-4.063,4.064
		c0,2.623,1.854,4.064,4.063,4.064c1.045,0,2.111-0.414,2.899-1.204L137.977,302.257z"/>
	<path d="M140.838,290.696c0,1.024-1.559,1.024-1.559,0C139.279,289.669,140.838,289.669,140.838,290.696 M139.557,303.618h0.966
		v-9.785h-0.966V303.618z"/>
	<path d="M152.262,293.871v9.747h-0.966v-2.072c-0.947,1.52-2.408,2.23-3.985,2.23c-2.723,0-4.953-2.053-4.953-5.031
		s2.23-4.992,4.953-4.992c1.577,0,3.175,0.73,3.985,2.25v-2.132H152.262z M143.325,298.745c0,2.445,1.774,4.084,3.985,4.084
		c5.424,0,5.424-8.148,0-8.148C145.1,294.681,143.325,296.298,143.325,298.745"/>
	<polygon points="66.401,313.919 62.276,320.229 62,320.229 57.843,313.919 57.843,323.493 57.012,323.493 57.012,312.718 
		57.998,312.718 62.122,318.999 66.201,312.718 67.219,312.718 67.219,323.493 66.401,323.493 	"/>
	<path d="M72.574,323.603c-2.14,0-3.864-1.494-3.864-3.91c0-2.279,1.725-3.926,3.864-3.926c2.141,0,4.048,1.309,3.756,4.279h-6.85
		c0.152,1.785,1.523,2.816,3.094,2.816c1,0,2.17-0.399,2.739-1.154l0.539,0.432C75.113,323.109,73.789,323.603,72.574,323.603
		 M69.48,319.384h6.172c-0.015-1.878-1.246-2.924-3.078-2.924C71.004,316.46,69.648,317.521,69.48,319.384 M72.791,314.612
		l1.415-1.895v-0.014h-1.001l-1.155,1.847v0.062H72.791z"/>
	<polygon points="80.502,318.999 82.765,315.89 83.671,315.89 83.671,315.921 80.948,319.553 83.889,323.464 83.889,323.493 
		82.995,323.493 80.502,320.092 78.007,323.493 77.114,323.493 77.114,323.464 80.056,319.553 77.331,315.921 77.331,315.89 
		78.238,315.89 	"/>
	<path d="M85.997,313.411c0,0.801-1.217,0.801-1.217,0C84.78,312.611,85.997,312.611,85.997,313.411 M84.996,323.493h0.754v-7.634
		h-0.754V323.493z"/>
	<path d="M93.831,322.431c-0.77,0.771-1.77,1.141-2.771,1.141c-2.14,0-3.91-1.479-3.91-3.879s1.709-3.88,3.91-3.88
		c1.001,0,2.001,0.386,2.771,1.14l-0.493,0.477c-0.615-0.615-1.461-0.908-2.277-0.908c-1.725,0-3.172,1.124-3.172,3.172
		c0,2.047,1.447,3.17,3.172,3.17c0.816,0,1.646-0.324,2.263-0.938L93.831,322.431z"/>
	<path d="M94.862,319.707c0-2.415,1.725-3.956,3.862-3.956c2.142,0,3.865,1.541,3.865,3.956c0,2.417-1.724,3.894-3.865,3.894
		C96.587,323.601,94.862,322.124,94.862,319.707 M101.852,319.707c0-1.97-1.401-3.247-3.127-3.247c-1.722,0-3.124,1.277-3.124,3.247
		c0,1.971,1.402,3.155,3.124,3.155C100.45,322.862,101.852,321.678,101.852,319.707"/>
	<line fill="#5AA192" x1="71.227" y1="202.627" x2="86.894" y2="215.546"/>
	
		<rect x="68.906" y="208.399" transform="matrix(0.7715 0.6362 -0.6362 0.7715 151.0833 -2.5267)" fill="#5AA192" width="20.306" height="1.374"/>
	<path fill="#DB8254" d="M105.751,235.796c0,2.23-1.81,4.041-4.042,4.041c-2.23,0-4.041-1.811-4.041-4.041
		c0-2.233,1.811-4.041,4.041-4.041C103.941,231.755,105.751,233.563,105.751,235.796"/>
	<path fill="#DB8254" d="M101.709,240.111c-2.38,0-4.316-1.937-4.316-4.315c0-2.38,1.937-4.316,4.316-4.316
		c2.381,0,4.316,1.937,4.316,4.316C106.025,238.175,104.09,240.111,101.709,240.111 M101.709,232.029
		c-2.075,0-3.766,1.689-3.766,3.767c0,2.076,1.69,3.766,3.766,3.766c2.076,0,3.767-1.689,3.767-3.766
		C105.476,233.719,103.785,232.029,101.709,232.029"/>
	<path fill="#DB8254" d="M89.947,234.053c0,1.624-1.315,2.94-2.938,2.94c-1.625,0-2.939-1.316-2.939-2.94
		c0-1.623,1.314-2.938,2.939-2.938C88.632,231.114,89.947,232.43,89.947,234.053"/>
	<path fill="#DB8254" d="M87.009,237.267c-1.773,0-3.214-1.442-3.214-3.214c0-1.772,1.44-3.214,3.214-3.214
		c1.772,0,3.215,1.441,3.215,3.214C90.224,235.824,88.781,237.267,87.009,237.267 M87.009,231.39c-1.469,0-2.665,1.195-2.665,2.663
		c0,1.469,1.196,2.665,2.665,2.665c1.47,0,2.664-1.196,2.664-2.665C89.673,232.585,88.479,231.39,87.009,231.39"/>
	<path fill="#DB8254" d="M89.73,215.548c0,1.623-1.316,2.939-2.941,2.939c-1.622,0-2.938-1.316-2.938-2.939
		c0-1.624,1.316-2.939,2.938-2.939C88.414,212.608,89.73,213.924,89.73,215.548"/>
	<path fill="#DB8254" d="M86.789,218.761c-1.771,0-3.213-1.441-3.213-3.213c0-1.772,1.442-3.214,3.213-3.214
		c1.773,0,3.216,1.441,3.216,3.214C90.005,217.319,88.563,218.761,86.789,218.761 M86.789,212.884c-1.468,0-2.662,1.195-2.662,2.664
		s1.194,2.664,2.662,2.664c1.47,0,2.666-1.195,2.666-2.664S88.259,212.884,86.789,212.884"/>
	<path fill="#DB8254" d="M105.016,213.509c0,2.332-1.892,4.223-4.223,4.223c-2.332,0-4.222-1.891-4.222-4.223
		c0-2.333,1.89-4.223,4.222-4.223C103.124,209.286,105.016,211.176,105.016,213.509"/>
	<path fill="#DB8254" d="M100.793,218.006c-2.479,0-4.497-2.018-4.497-4.497s2.019-4.496,4.497-4.496s4.497,2.017,4.497,4.496
		S103.271,218.006,100.793,218.006 M100.793,209.562c-2.176,0-3.946,1.771-3.946,3.947s1.771,3.947,3.946,3.947
		c2.177,0,3.947-1.771,3.947-3.947S102.97,209.562,100.793,209.562"/>
	
		<rect x="93.179" y="210.048" transform="matrix(0.037 0.9993 -0.9993 0.037 304.6553 112.6785)" fill="#DB8254" width="1.374" height="8.713"/>
	
		<rect x="80.584" y="224.114" transform="matrix(0.0172 0.9999 -0.9999 0.0172 310.1673 134.0388)" fill="#DB8254" width="12.629" height="1.374"/>
	
		<rect x="89.752" y="234.592" transform="matrix(0.9926 0.1218 -0.1218 0.9926 29.3499 -9.6959)" fill="#DB8254" width="8.501" height="1.374"/>
	<line fill="#5AA192" x1="57.586" y1="252.741" x2="86.808" y2="258.045"/>
	
		<rect x="57.347" y="254.845" transform="matrix(0.9839 0.1785 -0.1785 0.9839 46.759 -8.7866)" fill="#5AA192" width="29.7" height="1.098"/>
	<path fill="#5AA192" d="M56.304,247.968c2.231,0,4.041,1.809,4.041,4.042c0,2.231-1.81,4.04-4.041,4.04
		c-2.232,0-4.042-1.809-4.042-4.04C52.262,249.776,54.071,247.968,56.304,247.968"/>
	<path fill="#5AA192" d="M56.304,256.325c-2.381,0-4.317-1.937-4.317-4.315c0-2.382,1.937-4.317,4.317-4.317
		c2.38,0,4.316,1.936,4.316,4.317C60.62,254.389,58.684,256.325,56.304,256.325 M56.304,248.243c-2.077,0-3.767,1.689-3.767,3.767
		c0,2.075,1.689,3.766,3.767,3.766c2.075,0,3.766-1.69,3.766-3.766C60.069,249.933,58.379,248.243,56.304,248.243"/>
	<path fill="#5AA192" d="M68.397,265.562c1.623,0,2.94,1.316,2.94,2.939s-1.317,2.939-2.94,2.939s-2.939-1.316-2.939-2.939
		S66.774,265.562,68.397,265.562"/>
	<path fill="#5AA192" d="M68.397,271.716c-1.772,0-3.215-1.443-3.215-3.215c0-1.772,1.442-3.215,3.215-3.215
		s3.214,1.442,3.214,3.215C71.611,270.272,70.17,271.716,68.397,271.716 M68.397,265.837c-1.47,0-2.664,1.195-2.664,2.664
		c0,1.47,1.194,2.664,2.664,2.664s2.665-1.194,2.665-2.664C71.063,267.032,69.867,265.837,68.397,265.837"/>
	<path fill="#DB8254" d="M103.679,275.741c0,1.624-1.315,2.94-2.938,2.94c-1.624,0-2.939-1.316-2.939-2.94
		c0-1.623,1.315-2.939,2.939-2.939C102.363,272.802,103.679,274.118,103.679,275.741"/>
	<path fill="#DB8254" d="M100.74,278.956c-1.773,0-3.216-1.441-3.216-3.215c0-1.771,1.442-3.213,3.216-3.213
		c1.772,0,3.213,1.441,3.213,3.213C103.953,277.515,102.513,278.956,100.74,278.956 M100.74,273.077
		c-1.471,0-2.666,1.195-2.666,2.664c0,1.471,1.195,2.665,2.666,2.665c1.468,0,2.664-1.194,2.664-2.665
		C103.404,274.272,102.208,273.077,100.74,273.077"/>
	<path fill="#DB8254" d="M89.293,258.111c0,1.622-1.316,2.938-2.94,2.938c-1.623,0-2.938-1.316-2.938-2.938
		c0-1.624,1.315-2.939,2.938-2.939C87.977,255.172,89.293,256.487,89.293,258.111"/>
	<path fill="#DB8254" d="M86.353,261.324c-1.771,0-3.213-1.441-3.213-3.212c0-1.773,1.441-3.215,3.213-3.215
		c1.772,0,3.215,1.441,3.215,3.215C89.567,259.883,88.125,261.324,86.353,261.324 M86.353,255.446c-1.469,0-2.663,1.195-2.663,2.666
		c0,1.467,1.194,2.662,2.663,2.662c1.471,0,2.666-1.195,2.666-2.662C89.019,256.642,87.823,255.446,86.353,255.446"/>
	<path fill="#DB8254" d="M104.21,256.805c0,1.623-1.314,2.939-2.938,2.939s-2.938-1.316-2.938-2.939
		c0-1.624,1.315-2.938,2.938-2.938S104.21,255.181,104.21,256.805"/>
	<path fill="#DB8254" d="M101.272,260.019c-1.772,0-3.213-1.443-3.213-3.214c0-1.772,1.44-3.214,3.213-3.214
		s3.214,1.441,3.214,3.214C104.486,258.575,103.045,260.019,101.272,260.019 M101.272,254.141c-1.469,0-2.664,1.195-2.664,2.664
		c0,1.47,1.195,2.664,2.664,2.664s2.664-1.194,2.664-2.664C103.937,255.336,102.741,254.141,101.272,254.141"/>
	
		<rect x="93.035" y="252.25" transform="matrix(0.0341 0.9994 -0.9994 0.0341 347.3421 154.5331)" fill="#DB8254" width="1.374" height="9.435"/>
	
		<rect x="84.779" y="260.858" transform="matrix(0.9875 0.1578 -0.1578 0.9875 43.3476 -10.1315)" fill="#DB8254" width="1.374" height="14.025"/>
	
		<rect x="90.954" y="270.444" transform="matrix(0.0725 0.9974 -0.9974 0.0725 360.8716 165.1481)" fill="#DB8254" width="1.374" height="12.32"/>
	<line fill="#5AA192" x1="67.848" y1="206.563" x2="67.848" y2="265.936"/>
	<rect x="67.16" y="206.563" fill="#5AA192" width="1.376" height="59.372"/>
	<line fill="#5AA192" x1="70.289" y1="206.397" x2="75.543" y2="230.022"/>
	
		<rect x="60.816" y="217.521" transform="matrix(0.2171 0.9761 -0.9761 0.2171 270.0876 99.6525)" fill="#5AA192" width="24.201" height="1.377"/>
	<line fill="#5BA895" x1="66.565" y1="203.632" x2="47.141" y2="225.804"/>
	
		<rect x="56.165" y="199.979" transform="matrix(0.7524 0.6587 -0.6587 0.7524 155.4992 15.7083)" fill="#5AA192" width="1.374" height="29.478"/>
	<path fill="#5AA192" d="M75.91,229.647c1.622,0,2.938,1.316,2.938,2.94c0,1.622-1.316,2.938-2.938,2.938s-2.939-1.316-2.939-2.938
		C72.971,230.964,74.288,229.647,75.91,229.647"/>
	<path fill="#5AA192" d="M75.91,235.801c-1.772,0-3.215-1.442-3.215-3.213c0-1.772,1.442-3.215,3.215-3.215s3.214,1.442,3.214,3.215
		C79.124,234.358,77.683,235.801,75.91,235.801 M75.91,229.923c-1.47,0-2.664,1.194-2.664,2.665c0,1.468,1.194,2.663,2.664,2.663
		s2.664-1.195,2.664-2.663C78.574,231.117,77.38,229.923,75.91,229.923"/>
	<path fill="#5BA895" d="M43.109,223.048c3.95,0,7.155,3.203,7.155,7.154s-3.205,7.153-7.155,7.153
		c-3.951,0-7.153-3.202-7.153-7.153S39.158,223.048,43.109,223.048"/>
	<path fill="#5AA192" d="M43.109,237.63c-4.097,0-7.428-3.332-7.428-7.428s3.331-7.429,7.428-7.429s7.429,3.333,7.429,7.429
		S47.206,237.63,43.109,237.63 M43.109,223.323c-3.794,0-6.88,3.086-6.88,6.879s3.086,6.879,6.88,6.879
		c3.792,0,6.879-3.086,6.879-6.879S46.901,223.323,43.109,223.323"/>
	<path fill="#5AA192" d="M68.18,242.163c2.129,0,3.854,1.725,3.854,3.854s-1.725,3.854-3.854,3.854
		c-2.132,0-3.857-1.725-3.857-3.854S66.048,242.163,68.18,242.163"/>
	<path fill="#5AA192" d="M68.18,250.147c-2.279,0-4.133-1.853-4.133-4.13s1.854-4.13,4.133-4.13c2.276,0,4.13,1.853,4.13,4.13
		S70.456,250.147,68.18,250.147 M68.18,242.438c-1.976,0-3.581,1.606-3.581,3.58s1.605,3.581,3.581,3.581
		c1.974,0,3.58-1.607,3.58-3.581S70.153,242.438,68.18,242.438"/>
	<path fill="#DB8254" d="M88.502,276.672c0,2.472-2.003,4.474-4.474,4.474s-4.474-2.002-4.474-4.474c0-2.47,2.003-4.474,4.474-4.474
		S88.502,274.202,88.502,276.672"/>
	<path fill="#DB8254" d="M84.028,281.421c-2.618,0-4.749-2.13-4.749-4.749c0-2.618,2.131-4.749,4.749-4.749s4.748,2.131,4.748,4.749
		C88.776,279.291,86.646,281.421,84.028,281.421 M84.028,272.472c-2.315,0-4.199,1.885-4.199,4.2s1.884,4.2,4.199,4.2
		c2.313,0,4.199-1.885,4.199-4.2S86.342,272.472,84.028,272.472"/>
	<path fill="#5AA192" d="M68.273,196.671c2.837,0,5.139,2.301,5.139,5.139s-2.302,5.138-5.139,5.138c-2.839,0-5.139-2.3-5.139-5.138
		S65.435,196.671,68.273,196.671"/>
	<path fill="#5AA192" d="M68.273,207.222c-2.986,0-5.412-2.428-5.412-5.412s2.426-5.412,5.412-5.412
		c2.984,0,5.414,2.428,5.414,5.412S71.258,207.222,68.273,207.222 M68.273,196.946c-2.682,0-4.863,2.182-4.863,4.863
		s2.182,4.863,4.863,4.863c2.68,0,4.862-2.182,4.862-4.863S70.953,196.946,68.273,196.946"/>
	<path fill="#5AA192" d="M67.652,252.6c1.243,0,2.251,1.009,2.251,2.253c0,1.243-1.008,2.251-2.251,2.251
		c-1.244,0-2.253-1.008-2.253-2.251C65.399,253.608,66.408,252.6,67.652,252.6"/>
	<path fill="#5AA192" d="M67.652,257.379c-1.394,0-2.527-1.134-2.527-2.526c0-1.395,1.134-2.527,2.527-2.527
		c1.395,0,2.526,1.133,2.526,2.527C70.179,256.245,69.047,257.379,67.652,257.379 M67.652,252.875c-1.09,0-1.977,0.887-1.977,1.978
		c0,1.09,0.887,1.977,1.977,1.977s1.977-0.887,1.977-1.977C69.629,253.762,68.742,252.875,67.652,252.875"/>
	<path fill="#5AA192" d="M76.363,253.801c1.281,0,2.32,1.038,2.32,2.321c0,1.281-1.039,2.319-2.32,2.319
		c-1.282,0-2.32-1.038-2.32-2.319C74.043,254.839,75.081,253.801,76.363,253.801"/>
	<path fill="#5AA192" d="M76.363,258.716c-1.432,0-2.597-1.164-2.597-2.594c0-1.432,1.165-2.597,2.597-2.597
		s2.595,1.165,2.595,2.597C78.958,257.552,77.795,258.716,76.363,258.716 M76.363,254.075c-1.128,0-2.046,0.918-2.046,2.047
		c0,1.127,0.918,2.045,2.046,2.045c1.127,0,2.046-0.918,2.046-2.045C78.409,254.993,77.49,254.075,76.363,254.075"/>
	<rect x="6.448" y="308.071" width="147.329" height="0.55"/>
</g>
<g>
</g>
<g>
</g>
<g>
</g>
<g>
</g>
<g>
</g>
<g>
</g>
<g>
</g>
<g>
</g>
<g>
</g>
<g>
</g>
<g>
</g>
<g>
</g>
<g>
</g>
<g>
</g>
<g>
</g>
</svg>
