{"accessors" : [{"bufferView" : 0, "byteOffset" : 0, "componentType" : 5123, "count" : 1218, "type" : "SCALAR", "max" : [1217], "min" : [0]}, {"bufferView" : 1, "byteOffset" : 0, "componentType" : 5126, "count" : 1218, "type" : "VEC3", "max" : [24482.767578125, 24486.767578125, 24490.767578125], "min" : [142.76690673828125, 146.76690673828125, 150.76690673828125]}, {"bufferView" : 1, "byteOffset" : 12, "componentType" : 5126, "count" : 1218, "type" : "VEC2", "max" : [24494.767578125, 24498.767578125], "min" : [154.76690673828125, 158.76690673828125]}], "asset" : {"generator" : "Aspose.3D 20.8", "version" : "2.0"}, "buffers" : [{"uri" : "buffer.bin", "byteLength" : 26804}], "bufferViews" : [{"buffer" : 0, "byteOffset" : 0, "byteLength" : 2436, "target" : 34963}, {"buffer" : 0, "byteOffset" : 2440, "byteLength" : 24360, "byteStride" : 20, "target" : 34962}], "meshes" : [{"primitives" : [{"attributes" : {"POSITION" : 1, "TEXCOORD_0" : 2}, "indices" : 0, "mode" : 4}]}], "nodes" : [{"mesh" : 0, "name" : ""}], "scene" : 0, "scenes" : [{"nodes" : [0]}]}